<svg xmlns="http://www.w3.org/2000/svg" xmlns:xlink="http://www.w3.org/1999/xlink" fill="none" version="1.1" width="8.75" height="10.5" viewBox="0 0 8.75 10.5"><g transform="matrix(1,0,0,-1,0,21)"><path d="M1.3125,21Q0.765625,20.9727,0.382812,20.6172Q0.0273438,20.23438,0,19.6875L0,11.8125Q0.0273438,11.265625,0.382812,10.882812Q0.765625,10.5273438,1.3125,10.5L2.1875,10.5Q2.73438,10.5273438,3.11719,10.882812Q3.47266,11.265625,3.5,11.8125L3.5,19.6875Q3.47266,20.23438,3.11719,20.6172Q2.73438,20.9727,2.1875,21L1.3125,21ZM6.5625,21Q6.01562,20.9727,5.63281,20.6172Q5.27734,20.23438,5.25,19.6875L5.25,11.8125Q5.27734,11.265625,5.63281,10.882812Q6.01562,10.5273438,6.5625,10.5L7.4375,10.5Q7.98438,10.5273438,8.36719,10.882812Q8.72266,11.265625,8.75,11.8125L8.75,19.6875Q8.72266,20.23438,8.36719,20.6172Q7.98438,20.9727,7.4375,21L6.5625,21Z" fill="#FFFFFF" fill-opacity="1" style="mix-blend-mode:passthrough"/></g></svg>