<svg xmlns="http://www.w3.org/2000/svg" xmlns:xlink="http://www.w3.org/1999/xlink" fill="none" version="1.1" width="14" height="10.51093864440918" viewBox="0 0 14 10.51093864440918"><g transform="matrix(1,0,0,-1,0,21.02187728881836)"><path d="M1.44922,10.70781364440918Q1.01172,10.37968864440918,0.492188,10.59843864440918Q0.0273438,10.84453264440918,0,11.39140764440918L0,20.141408644409182Q0.0273438,20.688238644409182,0.492188,20.93433864440918Q1.01172,21.153138644409182,1.44922,20.82503864440918L6.125,16.91484864440918L6.125,15.766408644409179L6.125,14.61796864440918L1.44922,10.70781364440918ZM7,13.141408644409179L7,15.766408644409179L7,13.141408644409179L7,15.766408644409179L7,19.266408644409182L7,20.141408644409182Q7.02734,20.688238644409182,7.49219,20.93433864440918Q8.01172,21.153138644409182,8.44922,20.82503864440918L13.6992,16.449998644409177Q14,16.17656864440918,14,15.766408644409179Q14,15.35624864440918,13.6992,15.08281864440918L8.44922,10.70781364440918Q8.01172,10.37968864440918,7.49219,10.59843864440918Q7.02734,10.84453264440918,7,11.39140764440918L7,13.141408644409179Z" fill="#4B5563" fill-opacity="1" style="mix-blend-mode:passthrough"/></g></svg>